<mxfile host="app.diagrams.net" modified="2023-11-08T14:52:09.468Z" agent="Mozilla/5.0 (Windows NT 10.0; Win64; x64) AppleWebKit/537.36 (KHTML, like Gecko) Chrome/119.0.0.0 Safari/537.36" etag="bt-wawObElxHp8rbj7G8" version="22.0.8" type="github">
  <diagram name="Page-1" id="-tgOg72umuJVNT0WxeZg">
    <mxGraphModel dx="2074" dy="1118" grid="1" gridSize="10" guides="1" tooltips="1" connect="1" arrows="1" fold="1" page="1" pageScale="1" pageWidth="850" pageHeight="1100" math="0" shadow="0">
      <root>
        <mxCell id="0" />
        <mxCell id="1" parent="0" />
        <mxCell id="dxL-Oi6kczA5A2GokEiF-7" style="edgeStyle=orthogonalEdgeStyle;rounded=0;orthogonalLoop=1;jettySize=auto;html=1;exitX=0.5;exitY=1;exitDx=0;exitDy=0;entryX=0.5;entryY=0;entryDx=0;entryDy=0;" edge="1" parent="1" source="dxL-Oi6kczA5A2GokEiF-1" target="dxL-Oi6kczA5A2GokEiF-12">
          <mxGeometry relative="1" as="geometry">
            <mxPoint x="310" y="320" as="targetPoint" />
          </mxGeometry>
        </mxCell>
        <mxCell id="dxL-Oi6kczA5A2GokEiF-1" value="监听页面高度变化" style="rounded=1;whiteSpace=wrap;html=1;" vertex="1" parent="1">
          <mxGeometry x="250" y="180" width="120" height="60" as="geometry" />
        </mxCell>
        <mxCell id="dxL-Oi6kczA5A2GokEiF-8" style="edgeStyle=orthogonalEdgeStyle;rounded=0;orthogonalLoop=1;jettySize=auto;html=1;exitX=0.5;exitY=1;exitDx=0;exitDy=0;" edge="1" parent="1" target="dxL-Oi6kczA5A2GokEiF-3">
          <mxGeometry relative="1" as="geometry">
            <mxPoint x="310" y="380" as="sourcePoint" />
          </mxGeometry>
        </mxCell>
        <mxCell id="dxL-Oi6kczA5A2GokEiF-10" style="edgeStyle=orthogonalEdgeStyle;rounded=0;orthogonalLoop=1;jettySize=auto;html=1;exitX=1;exitY=0.5;exitDx=0;exitDy=0;entryX=0;entryY=0.5;entryDx=0;entryDy=0;" edge="1" parent="1" source="dxL-Oi6kczA5A2GokEiF-12" target="dxL-Oi6kczA5A2GokEiF-5">
          <mxGeometry relative="1" as="geometry">
            <mxPoint x="370" y="350" as="sourcePoint" />
          </mxGeometry>
        </mxCell>
        <mxCell id="dxL-Oi6kczA5A2GokEiF-14" value="否" style="edgeLabel;html=1;align=center;verticalAlign=middle;resizable=0;points=[];" vertex="1" connectable="0" parent="dxL-Oi6kczA5A2GokEiF-10">
          <mxGeometry x="-0.1833" y="-1" relative="1" as="geometry">
            <mxPoint as="offset" />
          </mxGeometry>
        </mxCell>
        <mxCell id="dxL-Oi6kczA5A2GokEiF-9" style="edgeStyle=orthogonalEdgeStyle;rounded=0;orthogonalLoop=1;jettySize=auto;html=1;exitX=1;exitY=0.5;exitDx=0;exitDy=0;entryX=0.5;entryY=1;entryDx=0;entryDy=0;" edge="1" parent="1" source="dxL-Oi6kczA5A2GokEiF-3" target="dxL-Oi6kczA5A2GokEiF-5">
          <mxGeometry relative="1" as="geometry" />
        </mxCell>
        <mxCell id="dxL-Oi6kczA5A2GokEiF-3" value="调用 浏览器 API 滚动" style="rounded=1;whiteSpace=wrap;html=1;" vertex="1" parent="1">
          <mxGeometry x="250" y="450" width="120" height="60" as="geometry" />
        </mxCell>
        <mxCell id="dxL-Oi6kczA5A2GokEiF-6" style="edgeStyle=orthogonalEdgeStyle;rounded=0;orthogonalLoop=1;jettySize=auto;html=1;exitX=1;exitY=0.5;exitDx=0;exitDy=0;entryX=0;entryY=0.5;entryDx=0;entryDy=0;" edge="1" parent="1" source="dxL-Oi6kczA5A2GokEiF-4" target="dxL-Oi6kczA5A2GokEiF-1">
          <mxGeometry relative="1" as="geometry" />
        </mxCell>
        <mxCell id="dxL-Oi6kczA5A2GokEiF-4" value="开始" style="rounded=0;whiteSpace=wrap;html=1;" vertex="1" parent="1">
          <mxGeometry x="20" y="180" width="120" height="60" as="geometry" />
        </mxCell>
        <mxCell id="dxL-Oi6kczA5A2GokEiF-5" value="结束" style="rounded=0;whiteSpace=wrap;html=1;" vertex="1" parent="1">
          <mxGeometry x="590" y="320" width="120" height="60" as="geometry" />
        </mxCell>
        <mxCell id="dxL-Oi6kczA5A2GokEiF-13" value="" style="edgeStyle=orthogonalEdgeStyle;rounded=0;orthogonalLoop=1;jettySize=auto;html=1;" edge="1" parent="1" source="dxL-Oi6kczA5A2GokEiF-12" target="dxL-Oi6kczA5A2GokEiF-3">
          <mxGeometry relative="1" as="geometry" />
        </mxCell>
        <mxCell id="dxL-Oi6kczA5A2GokEiF-15" value="是" style="edgeLabel;html=1;align=center;verticalAlign=middle;resizable=0;points=[];" vertex="1" connectable="0" parent="dxL-Oi6kczA5A2GokEiF-13">
          <mxGeometry x="-0.2333" y="2" relative="1" as="geometry">
            <mxPoint as="offset" />
          </mxGeometry>
        </mxCell>
        <mxCell id="dxL-Oi6kczA5A2GokEiF-12" value="是否需要滚动" style="rhombus;whiteSpace=wrap;html=1;" vertex="1" parent="1">
          <mxGeometry x="270" y="310" width="80" height="80" as="geometry" />
        </mxCell>
      </root>
    </mxGraphModel>
  </diagram>
</mxfile>
